<svg xmlns="http://www.w3.org/2000/svg" viewBox="0 0 540 900" role="img" aria-labelledby="title desc">
  <title id="title">Chinese Ink Tarot Card Back</title>
  <desc id="desc">A monochrome ink-wash tarot card back with brush circles and a seal-style accent.</desc>
  <defs>
    <linearGradient id="paper" x1="0" y1="0" x2="0" y2="1">
      <stop offset="0%" stop-color="#f4efe6"/>
      <stop offset="100%" stop-color="#e8dfd0"/>
    </linearGradient>
    <linearGradient id="ink" x1="0" y1="0" x2="1" y2="1">
      <stop offset="0%" stop-color="#181410"/>
      <stop offset="100%" stop-color="#4a4239"/>
    </linearGradient>
    <radialGradient id="wash" cx="50%" cy="45%" r="55%">
      <stop offset="0%" stop-color="#1f1a16" stop-opacity="0.18"/>
      <stop offset="55%" stop-color="#1f1a16" stop-opacity="0.08"/>
      <stop offset="100%" stop-color="#1f1a16" stop-opacity="0"/>
    </radialGradient>
  </defs>

  <rect width="540" height="900" rx="34" fill="url(#paper)"/>
  <rect x="16" y="16" width="508" height="868" rx="28" fill="none" stroke="#201c18" stroke-width="4" opacity="0.78"/>
  <rect x="34" y="34" width="472" height="832" rx="22" fill="none" stroke="#201c18" stroke-width="1.5" opacity="0.3"/>

  <g opacity="0.18" fill="none" stroke="#1d1713" stroke-linecap="round">
    <path d="M74 236 C124 168 194 138 270 138 C346 138 416 168 466 236" stroke-width="20"/>
    <path d="M74 664 C124 732 194 762 270 762 C346 762 416 732 466 664" stroke-width="20"/>
    <path d="M104 190 C144 242 160 300 156 354" stroke-width="14"/>
    <path d="M436 190 C396 242 380 300 384 354" stroke-width="14"/>
    <path d="M104 710 C144 658 160 600 156 546" stroke-width="14"/>
    <path d="M436 710 C396 658 380 600 384 546" stroke-width="14"/>
  </g>

  <circle cx="270" cy="450" r="196" fill="url(#wash)"/>
  <circle cx="270" cy="450" r="164" fill="none" stroke="#1f1a16" stroke-width="8" opacity="0.68"/>
  <circle cx="270" cy="450" r="124" fill="none" stroke="#1f1a16" stroke-width="2" stroke-dasharray="8 14" opacity="0.42"/>
  <circle cx="270" cy="450" r="96" fill="none" stroke="#1f1a16" stroke-width="3" opacity="0.7"/>

  <g transform="translate(270 450)">
    <path d="M0 -114 C38 -106 66 -78 74 -40 C82 -5 70 28 44 50 C22 68 6 84 0 114 C-6 84 -22 68 -44 50 C-70 28 -82 -5 -74 -40 C-66 -78 -38 -106 0 -114 Z"
      fill="none" stroke="url(#ink)" stroke-width="6" stroke-linejoin="round"/>
    <path d="M0 -78 C24 -72 42 -54 48 -28 C54 -4 46 18 30 34 C16 48 4 60 0 78 C-4 60 -16 48 -30 34 C-46 18 -54 -4 -48 -28 C-42 -54 -24 -72 0 -78 Z"
      fill="#1f1a16" fill-opacity="0.08" stroke="#1f1a16" stroke-width="2.5"/>
    <circle r="9" fill="#1f1a16"/>
  </g>

  <g opacity="0.42" fill="none" stroke="#1f1a16" stroke-width="2">
    <path d="M170 286 C196 272 228 266 270 266 C312 266 344 272 370 286"/>
    <path d="M170 614 C196 628 228 634 270 634 C312 634 344 628 370 614"/>
  </g>

  <g opacity="0.22">
    <circle cx="120" cy="452" r="9" fill="#1f1a16"/>
    <circle cx="420" cy="452" r="9" fill="#1f1a16"/>
    <circle cx="270" cy="182" r="9" fill="#1f1a16"/>
    <circle cx="270" cy="718" r="9" fill="#1f1a16"/>
  </g>

  <rect x="402" y="684" width="60" height="60" rx="6" fill="#b64034" opacity="0.82"/>
  <path d="M416 700 h32 v8 h-32z M416 714 h32 v8 h-32z M426 694 v36" fill="#f2d9c8"/>
  <path d="M436 694 c8 8 12 18 12 28 c0 8 -3 14 -8 20" fill="none" stroke="#f2d9c8" stroke-width="2"/>
</svg>
