<svg xmlns="http://www.w3.org/2000/svg" viewBox="0 0 540 900" role="img" aria-labelledby="title desc">
  <title id="title">Eastern Tarot Card Back</title>
  <desc id="desc">An ornate teal and gold tarot card back with a central mandala and corner filigree.</desc>
  <defs>
    <linearGradient id="bg" x1="0" y1="0" x2="0" y2="1">
      <stop offset="0%" stop-color="#132132"/>
      <stop offset="45%" stop-color="#0d1a28"/>
      <stop offset="100%" stop-color="#08111b"/>
    </linearGradient>
    <linearGradient id="frame" x1="0" y1="0" x2="1" y2="1">
      <stop offset="0%" stop-color="#f1d08a"/>
      <stop offset="35%" stop-color="#b78931"/>
      <stop offset="70%" stop-color="#f7e1aa"/>
      <stop offset="100%" stop-color="#8a6121"/>
    </linearGradient>
    <radialGradient id="glow" cx="50%" cy="50%" r="50%">
      <stop offset="0%" stop-color="#f2d38f" stop-opacity="0.6"/>
      <stop offset="40%" stop-color="#f2d38f" stop-opacity="0.18"/>
      <stop offset="100%" stop-color="#f2d38f" stop-opacity="0"/>
    </radialGradient>
    <radialGradient id="center" cx="50%" cy="45%" r="60%">
      <stop offset="0%" stop-color="#163d4d"/>
      <stop offset="55%" stop-color="#0f2633"/>
      <stop offset="100%" stop-color="#08111a"/>
    </radialGradient>
  </defs>

  <rect width="540" height="900" rx="34" fill="url(#bg)"/>
  <rect x="16" y="16" width="508" height="868" rx="28" fill="none" stroke="url(#frame)" stroke-width="4"/>
  <rect x="34" y="34" width="472" height="832" rx="22" fill="none" stroke="#f7e1aa" stroke-opacity="0.35" stroke-width="1.5"/>

  <g opacity="0.22" stroke="#f2d38f" stroke-width="2" stroke-linecap="round">
    <path d="M90 130 C122 108 146 102 176 102"/>
    <path d="M450 130 C418 108 394 102 364 102"/>
    <path d="M90 770 C122 792 146 798 176 798"/>
    <path d="M450 770 C418 792 394 798 364 798"/>
    <path d="M100 210 C72 266 64 336 76 404"/>
    <path d="M440 210 C468 266 476 336 464 404"/>
    <path d="M100 690 C72 634 64 564 76 496"/>
    <path d="M440 690 C468 634 476 564 464 496"/>
  </g>

  <circle cx="270" cy="450" r="190" fill="url(#glow)"/>
  <circle cx="270" cy="450" r="168" fill="none" stroke="url(#frame)" stroke-width="3" opacity="0.8"/>
  <circle cx="270" cy="450" r="132" fill="none" stroke="#f7e1aa" stroke-width="1.5" stroke-dasharray="7 16" opacity="0.38"/>
  <circle cx="270" cy="450" r="104" fill="url(#center)" stroke="url(#frame)" stroke-width="5"/>

  <g transform="translate(270 450)">
    <g fill="none" stroke="url(#frame)" stroke-width="5" stroke-linejoin="round" stroke-linecap="round">
      <path d="M0 -112 L24 -36 L112 0 L24 36 L0 112 L-24 36 L-112 0 L-24 -36 Z"/>
      <path d="M0 -86 L16 -20 L86 0 L16 20 L0 86 L-16 20 L-86 0 L-16 -20 Z" opacity="0.9"/>
    </g>
    <circle r="50" fill="none" stroke="#f7e1aa" stroke-width="2" opacity="0.65"/>
    <circle r="30" fill="none" stroke="#f7e1aa" stroke-width="1.5" opacity="0.55"/>
    <circle r="8" fill="#f7e1aa"/>
  </g>

  <g opacity="0.75">
    <circle cx="270" cy="184" r="10" fill="#f7e1aa"/>
    <circle cx="270" cy="716" r="10" fill="#f7e1aa"/>
    <circle cx="120" cy="450" r="10" fill="#f7e1aa"/>
    <circle cx="420" cy="450" r="10" fill="#f7e1aa"/>
  </g>

  <g fill="none" stroke="url(#frame)" stroke-width="3" stroke-linecap="round" opacity="0.9">
    <path d="M270 120 C298 144 306 166 306 192"/>
    <path d="M270 120 C242 144 234 166 234 192"/>
    <path d="M270 780 C298 756 306 734 306 708"/>
    <path d="M270 780 C242 756 234 734 234 708"/>
  </g>

  <g opacity="0.5" fill="none" stroke="#f7e1aa" stroke-width="2">
    <path d="M170 292 C198 278 226 270 270 270 C314 270 342 278 370 292"/>
    <path d="M170 608 C198 622 226 630 270 630 C314 630 342 622 370 608"/>
  </g>

  <g opacity="0.35" fill="#f7e1aa">
    <circle cx="270" cy="270" r="4"/>
    <circle cx="270" cy="630" r="4"/>
    <circle cx="184" cy="450" r="4"/>
    <circle cx="356" cy="450" r="4"/>
  </g>
</svg>
